{"title":"The Lifeguard 2013 WEBRip 480p x264 AAC - VYTO [P2PDL]","uid":8768069,"size":327235375,"categoryP":"video","categoryS":"movies","magnet":"?xt=urn:btih:a2eff9fc3cad049287887c202373845463f6086f&amp;dn=The+Lifeguard+2013+WEBRip+480p+x264+AAC+-+VYTO+%5BP2PDL%5D&amp;tr=udp%3A%2F%2Ftracker.openbittorrent.com%3A80&amp;tr=udp%3A%2F%2Fopen.demonii.com%3A1337&amp;tr=udp%3A%2F%2Ftracker.coppersurfer.tk%3A6969&amp;tr=udp%3A%2F%2Fexodus.desync.com%3A6969","seeders":0,"leechers":2,"uploader":"ValidusVyto","files":-1,"time":1375381067,"description":"_______ Visit us at our Semi Public Bittorrent Community ________\n  &lt;a href=&quot;\nhttp://p2pdl.com&quot; rel=&quot;nofollow&quot; target=&quot;_NEW&quot;&gt;\nhttp://p2pdl.com&lt;/a&gt;  _____________________________ &lt;a href=&quot; http://p2pdl.com&quot; rel=&quot;nofollow&quot; target=&quot;_NEW&quot;&gt; http://p2pdl.com&lt;/a&gt;\n\n\n\nThe Lifeguard 2013 WEBRip 480p x264 AAC - VYTO\n\n\nGenre: Comedy | Drama \nPlot: A former valedictorian quits her reporter job in New York and returns to the place\nshe last felt happy: her childhood home in Connecticut. She gets work as a lifeguard and\nstarts a dangerous relationship with a troubled teenager. \nDirector: Liz W. Garcia\nStars: Kristen Bell, Mamie Gummer, Martin Starr \nRated: R for strong sexuality, brief graphic nudity, drug use, language and a disturbing\nimage - some involving teens.\n\nIMDb: &lt;a href=&quot;\nhttp://www.imdb.com/title/tt2265534/&quot; rel=&quot;nofollow&quot; target=&quot;_NEW&quot;&gt;\nhttp://www.imdb.com/title/tt2265534/&lt;/a&gt;\n\nFormat                         : MPEG-4\nFile size                      : 309 MiB\nDuration                       : 1h 37mn\nOverall bit rate               : 442 Kbps\nSource                         : 1080p.WEB-DL.H264-PublicHD\n\nVideo\nFormat                         : AVC\nBit rate                       : 399 Kbps\nWidth                          : 720 pixels\nHeight                         : 400 pixels\nDisplay aspect ratio           : 16:9\nFrame rate mode                : Constant\nFrame rate                     : 23.976 fps\nStream size                    : 279 MiB (90%)\nWriting library                : x264 core 130 r2273\nAudio\nFormat                         : AAC\nBit rate mode                  : Variable\nBit rate                       : 39.0 Kbps\nChannel(s)                     : 2 channels\nChannel positions              : Front: L R\nSampling rate                  : 48.0 KHz\nStream size                    : 27.3 MiB (9%)\nLanguage                       : English\n\nSubtitle                       : Yes(English)\n &lt;a href=&quot;\nhttp://ultraimg.com/images/4OG19.png&quot; rel=&quot;nofollow&quot; target=&quot;_NEW&quot;&gt;\nhttp://ultraimg.com/images/4OG19.png&lt;/a&gt; &lt;a href=&quot;\nhttp://ultraimg.com/images/vsgac.png&quot; rel=&quot;nofollow&quot; target=&quot;_NEW&quot;&gt;\nhttp://ultraimg.com/images/vsgac.png&lt;/a&gt; &lt;a href=&quot;\nhttp://ultraimg.com/images/8UCHO.png&quot; rel=&quot;nofollow&quot; target=&quot;_NEW&quot;&gt;\nhttp://ultraimg.com/images/8UCHO.png&lt;/a&gt; &lt;a href=&quot;\nhttp://ultraimg.com/images/VH3sS.png&quot; rel=&quot;nofollow&quot; target=&quot;_NEW&quot;&gt;\nhttp://ultraimg.com/images/VH3sS.png&lt;/a&gt; &lt;a href=&quot;\nhttp://ultraimg.com/images/nIJuU.png&quot; rel=&quot;nofollow&quot; target=&quot;_NEW&quot;&gt;\nhttp://ultraimg.com/images/nIJuU.png&lt;/a&gt; &lt;a href=&quot;\nhttp://ultraimg.com/images/1Q30E.png&quot; rel=&quot;nofollow&quot; target=&quot;_NEW&quot;&gt;\nhttp://ultraimg.com/images/1Q30E.png&lt;/a&gt;\n\n\n----------------------------------------------------------------------------------------------------\n\n\nEncoded using revolutionary 10bit encoding, which enables us to provide you more crispier \nand sharper images at small sizes, just make sure you follow our instructions without a fault.\nRecommend to you to use latest version of VLC player. Install K-Lite Codec Pack or shark007 codecs\nin case of any kind of problem in playback (For non-VLC Media Player users). Alternatively, install\nCore AVC codecs, the fastest decoder that there is coupled with Community Center Codec Pack and play\non Windows Media Player Classic. Check sample to be sure.\nEnjoy!\n\nEncoder Notes:Looking For Early Access To Anything You Can Provide DVDScr, R5, DVDR, BluRay, Direct\nAudio, Music Releases and Seedboxes. We require dedicated servers, so as to do more \nand fast releases of movies.\nIf You Got anything to offer please contact us at &quot;&lt;a class=&quot;__cf_email__&quot; href=&quot;/cdn-cgi/l/email-protection&quot; data-cfemail=&quot;15656772557d60667d3b767a78&quot;&gt;[email&amp;#160;protected]&lt;/a&gt;&lt;script cf-hash='f9e31' type=&quot;text/javascript&quot;&gt;\n/* &lt;![CDATA[ */!function(){try{var t=&quot;currentScript&quot;in document?document.currentScript:function(){for(var t=document.getElementsByTagName(&quot;script&quot;),e=t.length;e--;)if(t[e].getAttribute(&quot;cf-hash&quot;))return t[e]}();if(t&amp;&amp;t.previousSibling){var e,r,n,i,c=t.previousSibling,a=c.getAttribute(&quot;data-cfemail&quot;);if(a){for(e=&quot;&quot;,r=parseInt(a.substr(0,2),16),n=2;a.length-n;n+=2)i=parseInt(a.substr(n,2),16)^r,e+=String.fromCharCode(i);e=document.createTextNode(e),c.parentNode.replaceChild(e,c)}}}catch(u){}}();/* ]]&gt; */&lt;/script&gt;&quot;.\n\nFace book Fan Page:  \nSearch P2PDL on FB and hit Like!!!","torrent":{"xt":"urn:btih:a2eff9fc3cad049287887c202373845463f6086f","amp;dn":"The+Lifeguard+2013+WEBRip+480p+x264+AAC+-+VYTO+%5BP2PDL%5D","amp;tr":["udp%3A%2F%2Ftracker.openbittorrent.com%3A80","udp%3A%2F%2Fopen.demonii.com%3A1337","udp%3A%2F%2Ftracker.coppersurfer.tk%3A6969","udp%3A%2F%2Fexodus.desync.com%3A6969"],"infoHash":"a2eff9fc3cad049287887c202373845463f6086f","infoHashBuffer":{"type":"Buffer","data":[162,239,249,252,60,173,4,146,135,136,124,32,35,115,132,84,99,246,8,111]},"announce":[],"urlList":[]}}